<?xml version="1.0" encoding="UTF-8"?>
<svg id="Calque_1" data-name="Calque 1" xmlns="http://www.w3.org/2000/svg" viewBox="0 0 800 578.72">
  <defs>
    <style>
      .cls-1 {
        fill: none;
      }

      .cls-2 {
        fill: #fff;
      }

      .cls-3 {
        fill: #211715;
      }
    </style>
  </defs>
  <path class="cls-2" d="M730.14,158.91c2.67-2.19,6.1-3.23,9.53-2.87,4.42,.11,8.43,2.65,10.41,6.61,3.29,6.55,2.45,18.23-.42,25.32-2.04,5.02-5.34,12.69-12.53,17.9-3.2,2.36-7.25,3.28-11.16,2.53l-1.04-.24c-1.24,3.43-2.7,6.78-4.37,10.03-2.76,6.34-15.57,26.02-31.79,37.35,.03,3.28-.02,5.15,.33,9.98,.07,2.62,.51,5.21,1.31,7.7,1.11,3.2,3.06,6.04,5.64,8.22,5.73,4.62,11.63,6.83,18.89,9.56l6.63,2.61c-23.37,11.74-49.06,18.1-75.21,18.62-25.29,.1-58.48-8.62-76.25-18.56l6.79-2.67c7.26-2.72,13.15-4.94,18.87-9.56,3.01-2.06,5.86-4.35,8.53-6.84,3.58-4,4.81-9.08,5.84-15.14-11.17-4.5-20.61-12.75-29.27-24.43-7.94-10.82-13.59-23.15-16.58-36.23-4.25,.64-8.56-.71-11.69-3.66-6.54-6.02-8.93-14.01-10.37-19.24-2.03-7.37-1.51-19.07,2.52-25.19,2.43-3.7,6.71-5.75,11.11-5.35,3.45,.05,6.74,1.47,9.13,3.96,0,0-8.48-81.06,81.65-81.06,95.51,.02,83.48,90.67,83.48,90.67Z"/>
  <path class="cls-2" d="M74.97,158.6c.23-2.91,1-5.75,2.27-8.37,1.43-2.79,3.89-4.9,6.86-5.89-.3-.99-.46-1.55-.46-1.55-3.28-10.58-5-21.59-5.1-32.66-.36-32.42,14.38-63.16,39.88-83.17,17.46-13.89,38.99-21.68,61.29-22.18,22.27-1.21,44.33,4.9,62.81,17.4,26.97,18,44.02,47.52,46.15,79.87,.75,11.05-.12,22.16-2.58,32.96l-.32,1.48c3.22,.68,6.01,2.65,7.73,5.45,4.11,6.53,4.42,18.84,2.13,26.56-1.62,5.46-4.31,13.83-11.31,20.02-3.11,2.8-7.26,4.17-11.43,3.78l-1.12-.14c-.95,3.72-2.14,7.38-3.56,10.94-2.62,8.05-17.63,36.36-37.58,48.17v11.58c-10.35,10.26-22.26,18.83-35.28,25.38l-8.28,.29c-16.08-6.78-30.78-16.48-43.33-28.6v-8.07c-7.54-4.58-14.32-10.3-20.12-16.95-9.41-10.52-16.58-22.86-21.04-36.26-4.39,1.11-9.05,.13-12.62-2.65-7.46-5.64-10.77-13.77-12.81-19.09-2.05-5.86-2.8-12.1-2.18-18.28Z"/>
  <path class="cls-2" d="M222.69,322.27c12.98-14.07,21.83-30.91,30.19-47.18-4.32-7.05-9.83-13.28-16.29-18.43-11.68,12.97-25.66,23.67-41.23,31.56-1.78,.86-1.62,3.97-.57,5.19,.81,.94,21.48,23.04,27.9,28.86Z"/>
  <path class="cls-2" d="M162.19,324.38c-13.93-13.12-23.93-29.31-33.41-44.96,3.82-7.33,8.88-13.94,14.97-19.52,12.56,12.12,27.25,21.82,43.33,28.6,1.83,.74,1.9,3.85,.93,5.14-.74,1-19.82,24.48-25.82,30.74Z"/>
  <path class="cls-3" d="M568.18,299.33c7.68-2.69,15.22-5.76,22.59-9.2,2.93-1.59,5.71-3.43,8.32-5.5,2.72-1.86,5.32-3.89,7.78-6.08,4.84-4.79,6.58-11.38,7.71-17.88,.6-2.44-.81-4.92-3.21-5.66-2.45-.65-4.96,.78-5.66,3.21-.92,5.29-1.92,10.76-6.08,14.51-2.21,1.99-4.75,3.64-7.11,5.44-2.38,1.79-4.93,3.34-7.62,4.62-6.15,2.98-12.8,5.16-19.16,7.66-2.4,.74-3.81,3.22-3.21,5.66,.69,2.44,3.21,3.87,5.66,3.21h0Z"/>
  <path class="cls-3" d="M684.17,256.35c.03,6.06-.25,12.96,2.03,18.66,1.22,3.34,3.16,6.37,5.69,8.88,2.58,2.34,5.46,4.33,8.56,5.92,7.33,3.9,15.49,6.49,23.22,9.53,2.45,.66,4.97-.77,5.66-3.21,.61-2.44-.8-4.93-3.21-5.66-6.45-2.54-13.19-4.75-19.41-7.78-4.94-2.41-9.77-5.35-11.86-10.67-.87-2.76-1.3-5.63-1.28-8.52-.14-2.38-.17-4.76-.19-7.15-.03-5.92-9.23-5.93-9.2,0h0Z"/>
  <path class="cls-1" d="M795.4,374.89c-.51,28.63-3.09,61.59-10.35,91.44-5.35,22.02-12.7,42.52-29.69,58.41-14.97,14.01-40.76,18.09-58.9,12.3-6.78,4.28-14.5,6.83-22.49,7.45-10.26,.19-20.53,.41-30.79,.59,2.16,4.71,.09,10.29-4.62,12.45-.56,.26-1.14,.46-1.74,.6-23.24,5.75-47.02,8.98-70.95,9.62-26.42,.68-48.34,1.11-65.9-17.44-16.22-17.12-19.24-42.29-20.62-64.77-1.41-21.53-1.67-43.12-.78-64.67,1.06-20.72,4.54-41.25,10.38-61.16,3.23-10.4,7.76-20.35,13.49-29.62,13.9-20.95,36.35-27.9,59.9-35.58l4.61-1.32c1.03-.3,1.75-.38,2.05-.18,17.48,10.2,51.52,19.3,77.36,19.2,27.37-.52,54.23-7.49,78.4-20.34,19.78,6.32,34.88,13.31,47.25,25.5,13.35,11.47,23.38,27.19,23.39,57.52"/>
  <path class="cls-2" d="M659.72,501.69c4.85,11.94,17.25,28.92,32.79,33.88,1.29,.56,2.62,1.05,3.97,1.46-6.78,4.29-14.5,6.85-22.5,7.47-9.58,.17-19.16,.38-28.74,.56l-1.65,.33c-2.97-20.04-6.3-44.17-8.26-54.27,6.54-.06,13.02-1.19,19.2-3.33,1.63,4.75,3.35,9.41,5.19,13.91Z"/>
  <path class="cls-1" d="M717.94,118.5c-3.53-6.93-8.03-13.32-13.37-18.97l-13.56-11.83c-8.43,10-21.06,16.39-32.61,20.31-15.04,5.11-24.96,3.17-40.7-1.61-3.73,1.65-7.68,3.02-11.1,4.14-7.69,2.51-16.44,3.35-23.58,7.14-5.79,3.39-10.25,8.64-12.66,14.9-1.58,3.72-4.28,12.94-5.37,16.71-2.39-2.49-5.68-3.91-9.13-3.96-1.32-.04-2.64,.09-3.92,.38-3.05-10.48-4.41-21.37-4.02-32.28,1.97-34.85,18.15-57.9,35.5-67.2,16.29-20.09,43.88-30.86,72.16-27.8,17.82,1.89,34.79,8.56,49.13,19.31,9.2,8.11,16.69,14.72,16.69,14.72,16.29,14.36,28.27,38.71,27.74,72-.24,11.01-2.21,21.91-5.83,32.31-1.18-.39-2.4-.64-3.64-.75-3.43-.35-6.86,.68-9.53,2.87l-3.41,2.92-.32-9.27c-.29-11.83-3.17-23.46-8.46-34.06Z"/>
  <path class="cls-3" d="M568.24,146.05c-5.35-5.26-13.36-6.78-20.26-3.83-4.88,2.33-8.48,6.7-9.81,11.95-3.72,11.78-1.3,25.58,4.82,36.15,4.25,7.35,11.36,13.87,20.4,13.2,2.51-.06,4.54-2.08,4.6-4.6-.02-2.53-2.07-4.58-4.6-4.6-7.02,.52-11.48-6.03-14.06-11.75-2.2-4.76-3.43-9.9-3.64-15.14-.11-2.99,.17-5.99,.83-8.9,.26-1.19,.62-2.35,1.08-3.47,.33-.71,.71-1.39,1.13-2.05,.1-.17,.77-.98,.11-.19,1.23-1.67,3.13-2.71,5.2-2.85,2.83-.4,5.69,.55,7.71,2.58,4.18,4.22,10.68-2.3,6.51-6.5h0Z"/>
  <path class="cls-3" d="M672.06,267.85c11.84-2.03,22.19-9.77,30.57-18,7.59-7.43,14.17-15.82,19.58-24.96,2.83-4.96,5.22-10.15,7.15-15.52l-5.66,3.21c15.41,3.53,25.13-10.46,30.2-22.94,2.45-6.21,3.38-12.92,2.72-19.57-.54-5.48-2.15-11.14-6.61-14.73-6.84-5.31-16.44-5.18-23.13,.32-1.78,1.8-1.78,4.7,0,6.5,1.82,1.74,4.68,1.74,6.51,0,2.32-1.62,5.27-2.05,7.96-1.17,1.67,.4,3.13,1.4,4.1,2.81,2.74,4.52,2.54,10.81,1.71,15.86-.97,5.63-3.14,10.99-6.36,15.71-3.28,4.98-8.27,9.79-14.65,8.33-2.44-.6-4.92,.81-5.66,3.21-3.03,8.01-7.15,15.55-12.25,22.42-6.14,8.72-13.69,16.35-22.35,22.59-4.85,3.5-10.4,5.91-16.28,7.04-2.44,.69-3.86,3.21-3.21,5.66,.72,2.41,3.22,3.83,5.66,3.21h0Z"/>
  <path class="cls-3" d="M558.58,193.58c2.09,12.6,6.49,24.7,12.97,35.71,6.9,11.65,16.23,22.59,27.79,29.81,5.83,3.63,12.25,6.2,18.97,7.59,5.78,1.2,8.24-7.66,2.45-8.87-14.59-3.04-25.99-12.23-34.95-23.83-9.56-12.55-15.87-27.28-18.37-42.86-.69-2.44-3.21-3.87-5.66-3.21-2.41,.72-3.83,3.22-3.21,5.66h.01Z"/>
  <path class="cls-3" d="M655.56,218.12c-.28,.12-.58,.23-.86,.36-.48,.21,1.16-.41,.47-.18-.21,.07-.42,.15-.63,.22-.89,.3-1.81,.55-2.73,.74-.6,.12-1.2,.21-1.8,.3-.89,.14,.55-.02-.06,0-.33,.02-.66,.05-.99,.07-1.71,.08-3.43,.04-5.13-.12-.81-.07-1.62-.17-2.43-.29,.89,.14-.47-.1-.53-.11-.34-.07-.67-.15-1-.22-1.21-.29-2.39-.67-3.54-1.14-.14-.06-.28-.12-.42-.18-.33-.14-.18-.07,.42,.19-.13,.02-.49-.25-.6-.31-.39-.2-.78-.43-1.15-.68-.29-.19-.56-.4-.84-.6-.62-.4,.81,.8,.36,.3-.1-.11-.23-.2-.34-.31-1.75-1.84-4.67-1.9-6.5-.15-1.82,1.73-1.9,4.61-.2,6.45,4.33,4.04,10.22,5.61,15.99,6.2,5.76,.64,11.58-.2,16.92-2.45,2.22-1.22,3.05-4,1.84-6.24-1.26-2.17-4-2.98-6.24-1.84h0Z"/>
  <path class="cls-3" d="M641.86,183.37c-.8,2.46-1.54,4.96-2.13,7.48-.28,.98-.41,2-.39,3.02,.06,2.07,1.14,3.98,2.89,5.11,1.26,.79,2.7,1.26,4.19,1.36,.92,.02,1.84-.06,2.74-.24l-1.22,.16c.13-.02,.27-.03,.4-.04,1.21-.03,2.38-.51,3.26-1.34,1.8-1.8,1.8-4.71,0-6.5-.86-.87-2.04-1.35-3.26-1.34-.65,.05-1.29,.16-1.94,.25l1.22-.16c-.4,.06-.8,.07-1.2,.03l1.22,.16c-.35-.05-.69-.14-1.02-.27l1.1,.46c-.34-.14-.66-.32-.96-.54l.93,.72c-.07-.06-.14-.12-.19-.19l.72,.93c-.08-.11-.14-.22-.19-.34l.46,1.1c-.04-.13-.08-.25-.1-.38l.16,1.22c-.04-.34-.03-.68,.02-1.02l-.16,1.22c.27-1.47,.63-2.92,1.08-4.34,.38-1.36,.8-2.72,1.24-4.07,.65-2.45-.78-4.96-3.21-5.66-2.44-.62-4.94,.8-5.66,3.21v-.02Z"/>
  <path class="cls-3" d="M602.52,159.9c-1.63,4.36-1.33,14.64,7.04,16,11.13,.57,12.44-11.74,9.03-17.77-2.79-4.93-11.69-7.44-16.07,1.78Z"/>
  <path class="cls-3" d="M691.62,165.08c1.11,4.52-.38,14.69-8.85,15.07-11.12-.71-11-13.11-6.91-18.7,3.34-4.58,12.48-6.03,15.76,3.63Z"/>
  <path class="cls-3" d="M581.08,42.27c-25.92,14.08-37.76,46.68-37.87,74.75-.04,9.61,1.25,19.18,3.83,28.44,1.61,5.69,10.49,3.27,8.87-2.45-4.2-15.14-4.58-31.09-1.1-46.42,2.86-12.84,8.26-25.46,17.14-35.33,3.9-4.47,8.57-8.22,13.78-11.06,5.2-2.83,.57-10.77-4.64-7.94h0Z"/>
  <path class="cls-3" d="M712.41,37.9c-13.33-10.96-29.05-18.62-45.89-22.38-18.02-3.95-36.81-2.49-54,4.2-9.39,3.75-18.03,9.16-25.51,15.96-4.37,4.01,2.14,10.5,6.5,6.51,24.44-22.38,61.69-24.85,91.02-11.11,7.62,3.6,14.79,8.08,21.38,13.32,1.83,1.72,4.68,1.72,6.5,0,1.78-1.8,1.78-4.7,0-6.5h0Z"/>
  <path class="cls-3" d="M748.16,156.65c5.18-16.39,6.71-33.71,4.49-50.76-1.71-14.47-6.62-28.38-14.39-40.71-3.81-5.9-8.39-11.26-13.62-15.95-4.41-3.92-10.94,2.56-6.5,6.5,20.1,17.87,27.45,45.54,26.3,71.69-.57,9.11-2.3,18.12-5.15,26.79-1.74,5.67,7.13,8.1,8.87,2.45h0Z"/>
  <path class="cls-3" d="M701.32,102.79c12.62,13.57,19.9,31.25,20.49,49.77,.23,5.9,9.42,5.93,9.2,0-.66-20.95-8.9-40.94-23.19-56.28-4.03-4.35-10.53,2.17-6.5,6.5h0Z"/>
  <path class="cls-3" d="M689.02,82.86c-6.5,8.77-16.54,14.76-26.52,18.76-5.47,2.4-11.26,3.97-17.2,4.67-5.8,.36-11.61-.23-17.22-1.74-5.75-1.4-8.2,7.47-2.45,8.87,6.53,1.78,13.3,2.46,20.05,2.03,6.87-.74,13.58-2.51,19.93-5.23,12.19-4.98,23.41-12.01,31.35-22.72,1.26-2.2,.53-5-1.65-6.29-2.2-1.22-4.97-.49-6.29,1.65h0Z"/>
  <path class="cls-3" d="M643.17,80.32c-4.39,5.32-9.4,10.09-14.92,14.21-3.08,2.43-6.35,4.59-9.8,6.46-3.56,1.74-7.23,3.22-11,4.44-7.84,2.65-16.19,3.67-23.82,6.93-7.29,3.22-13.15,8.99-16.48,16.23-2.73,6.3-4.94,12.82-6.6,19.49-1.65,5.7,7.22,8.13,8.87,2.45,3.33-11.47,6.12-25.15,18.51-30.07,7.54-2.99,15.74-3.98,23.4-6.66,7.5-2.53,14.56-6.2,20.94-10.87,6.44-4.64,12.28-10.05,17.4-16.11,1.73-1.82,1.73-4.68,0-6.5-1.8-1.78-4.7-1.78-6.5,0h0Z"/>
  <path class="cls-3" d="M690.79,148.73c1.28,1.78,2.71,3.45,4.28,4.97,.92,.87,1.89,1.67,2.91,2.42,.9,.65,1.89,1.17,2.94,1.55,.59,.19,1.23,.22,1.83,.08,.61-.03,1.2-.21,1.71-.54,2.19-1.28,2.93-4.1,1.65-6.29,0,0,0,0,0,0l-.72-.93c-.56-.56-1.26-.97-2.03-1.18l-.13-.05,1.1,.46c-.69-.32-1.35-.73-1.94-1.21l.93,.72c-1.84-1.47-3.49-3.16-4.91-5.03l.72,.93c-.13-.17-.26-.35-.38-.53-.64-1-1.62-1.74-2.75-2.11-2.45-.68-4.98,.76-5.66,3.21,0,0,0,0,0,0-.34,1.19-.17,2.48,.46,3.54h0Z"/>
  <path class="cls-3" d="M572.88,286.14c-16.15,5.65-33.01,9.93-48.13,18.12-7.25,3.84-13.82,8.84-19.45,14.8-5.85,6.57-10.6,14.05-14.06,22.14-7.8,17.34-12.17,36.14-14.88,54.91-3.07,21.25-3.26,42.83-2.71,64.25,.49,19,.91,38.59,5.13,57.21,3.88,17.12,12.13,33.12,26.62,43.54,13.18,9.48,29.65,11.39,45.44,11.48,20.04,.18,40.07-1.31,59.86-4.47,4.97-.81,9.93-1.73,14.86-2.76,4.93-1.02,10.53-1.64,15.12-3.77,3.87-1.84,6.67-5.36,7.61-9.54,.92-4.27-.42-8.93-1.05-13.17-2.33-15.85-4.33-31.79-7.22-47.55-.32-1.75-.63-3.52-1.12-5.24-.74-2.4-3.22-3.81-5.66-3.2-.81,.14-1.62,.26-2.44,.37-.17,.02-1.39,.19-.25,.04-.54,.07-1.09,.14-1.63,.21-2.29,.29-4.58,.54-6.87,.79-6.52,.71-13.04,1.32-19.57,1.92-17.16,1.56-34.33,2.91-51.51,4.18-2.51,.06-4.54,2.08-4.6,4.6,.02,2.53,2.07,4.58,4.6,4.6,17.44-1.29,34.86-2.66,52.27-4.25,10.81-.98,21.73-1.8,32.44-3.59l-5.66-3.21c1.09,4.41,1.93,8.89,2.49,13.4,1.22,7.68,2.34,15.38,3.46,23.08,.64,4.41,1.28,8.81,1.93,13.22,.28,1.92,.57,3.83,.85,5.75,.45,1.82,.67,3.7,.65,5.58-.43,3.51-3.65,4.1-6.53,4.77-4.7,1.09-9.43,2.1-14.17,3.03-18.96,3.6-38.18,5.57-57.48,5.9-14.54,.33-30.38,.83-43.81-5.69-31.59-15.33-32.92-55.39-34.21-85.81-1.15-20.71-.92-41.47,.7-62.14,.84-8.94,2.18-17.83,4.02-26.62,1.59-8.48,3.74-16.84,6.43-25.04,5.43-15.5,12.76-30.66,26.44-40.46,12.75-9.13,27.95-13.75,42.69-18.55,3.94-1.28,7.87-2.58,11.78-3.95,2.42-.72,3.84-3.22,3.23-5.67-.69-2.43-3.21-3.86-5.66-3.21h0Z"/>
  <path class="cls-3" d="M536.76,407.05c3.47,29.03,6.98,58.06,10.31,87.11,.07,2.51,2.09,4.53,4.6,4.6,2.53-.01,4.58-2.07,4.6-4.6-3.33-29.05-6.84-58.08-10.31-87.11-.07-2.51-2.09-4.52-4.6-4.6-2.53,.01-4.58,2.07-4.6,4.6h0Z"/>
  <path class="cls-3" d="M719.31,289.59c-19.01,9.69-39.7,15.62-60.95,17.48-20.25,1.78-40.51-1.31-59.94-7.03-9.44-2.58-18.53-6.27-27.1-10.99-5.13-2.97-9.77,4.98-4.64,7.94,8.05,4.47,16.56,8.06,25.39,10.71,10.13,3.23,20.5,5.64,31.02,7.21,10.53,1.67,21.2,2.21,31.84,1.62,11.83-.8,23.56-2.79,34.99-5.94,11.77-3.14,23.18-7.52,34.04-13.06,5.26-2.72,.61-10.66-4.64-7.94h0Z"/>
  <path class="cls-3" d="M645.23,549.66c9.94-.18,20.01,.07,29.92-.61,8.43-.86,16.55-3.62,23.75-8.09,5.11-2.98,.49-10.92-4.64-7.94-6.08,3.54-13.35,6.64-20.06,6.89-9.65,.36-19.32,.38-28.97,.56-5.91,.11-5.94,9.31,0,9.2h0Z"/>
  <path class="cls-3" d="M635.33,495.71c3.62-.1,7.23-.44,10.81-1.02,3.26-.6,6.47-1.43,9.62-2.48,2.45-.68,3.89-3.21,3.21-5.66-.68-2.45-3.21-3.89-5.66-3.21h0c-3.06,1.01-6.18,1.82-9.34,2.43-.37,.07-.75,.13-1.12,.19-.32,.05-1.67,.16-.19,.03-.68,.06-1.37,.16-2.05,.22-1.76,.16-3.52,.25-5.28,.3-2.54,0-4.6,2.06-4.6,4.6s2.06,4.6,4.6,4.6h0Z"/>
  <path class="cls-3" d="M708.3,291.75c17.64,5.01,35.81,10.32,51,20.96,6.01,4.25,11.51,9.18,16.4,14.69,4.36,4.92,7.81,10.58,10.17,16.71,3.48,9.88,5.15,20.31,4.93,30.78,.02,5.92,9.22,5.93,9.2,0-.06-18.36-3.83-36.58-15.45-51.21-4.88-5.94-10.45-11.28-16.58-15.92-7.11-5.44-14.89-9.93-23.15-13.38-11.1-4.55-22.48-8.39-34.07-11.5-5.7-1.62-8.14,7.25-2.45,8.87h0Z"/>
  <path class="cls-2" d="M708.5,299.12c2.31-3.3,4.42-6.74,6.32-10.29,.96-1.82,1.85-3.71,2.72-5.75,5.73-18.57,9.22-50.29,10.04-66.84,.4-2.77,.08-5.59-.92-8.2-1.54-2.94-4.58-4.79-7.89-4.81-5.9,.57-7.66,4.39-8.34,7.97-.27,1.4-.57,3.54-.77,5.24l-.12-.15c-1.81-2.52-4.75-3.99-7.86-3.91-4.46,.41-7.35,3.79-8.42,9.09-1.61,8.14-4.91,21.77-7.77,32.43,.16-3.68,.26-7.12,.37-11.26,.03-1.86-.31-3.71-1.01-5.43-.62-1.59-1.97-2.79-3.62-3.23-2.78-.39-5.52,.97-6.9,3.42-1.1,2.54-1.78,5.24-1.99,8-.99,7.81-2.86,15.49-5.59,22.88-5.52,13.04-21.48,29.7-23.47,40.31-1.11,5.92-.14,10.73,.65,15.96,.8,5.29,2.47,11.02,2.73,17.67,.86,12.88,1.32,20.61,1.88,32.85,17.78-3.39,37.44-7.2,54.29-10.18-4.67-10.31-10-23.57-9.2-31.07,.1-9.6,3.29-18.91,9.1-26.54,2.09-2.92,4.01-5.56,5.79-8.15Z"/>
  <path class="cls-3" d="M690.56,252.76c2.4-9.15,4.69-18.35,6.64-27.62,.28-1.72,.69-3.41,1.23-5.07,.18-.38,.38-.76,.6-1.12,.1-.16,.64-.89,.27-.44,.29-.36,.62-.69,.98-.98-.57,.46,.48-.24,.57-.29-.74,.38,1.59-.36,.83-.27,.67-.12,1.36-.04,1.97,.24,.45,.22,.86,.5,1.23,.84,.49,.46,.96,.96,1.39,1.48,1.8,1.78,4.7,1.78,6.5,0,1.74-1.82,1.74-4.69,0-6.5-3.14-4.02-8.28-5.94-13.29-4.96-5.07,1.35-9,5.37-10.24,10.47-1.44,4.79-2.16,9.88-3.31,14.76-1.35,5.69-2.76,11.36-4.25,17.01-1.51,5.73,7.36,8.17,8.87,2.45h0Z"/>
  <path class="cls-3" d="M721.98,284.3c3.33-11.75,5.7-23.75,7.09-35.89,1.74-11.42,2.81-22.93,3.2-34.48,.1-6.61-2.89-12.31-9.31-14.64-6.11-1.95-12.73,.84-15.6,6.57-1.05,2.46-1.7,5.08-1.94,7.75-.16,1.15-.41,3.32-.49,3.99-.05,.4-.29,1.99-.42,2.87-.78,5.24-1.58,10.47-2.4,15.69-1.83,11.63-3.55,23.35-6.13,34.84-1.3,5.76,7.57,8.23,8.87,2.45,2.04-9.08,3.48-18.32,4.97-27.5,1.55-9.56,3.28-19.15,4.36-28.77,.17-2.08,.51-4.14,1.03-6.16,.19-1.46,1.26-2.64,2.7-2.97,4.41-1.34,5.26,3.61,5.17,6.58-.32,10.35-1.49,20.72-2.81,30.98-1.36,12.26-3.75,24.38-7.13,36.24-1.72,5.67,7.14,8.1,8.87,2.45h0Z"/>
  <path class="cls-3" d="M653.11,375.07c-.74-16.19-1.11-32.51-4.18-48.44-1.27-6.59-2.73-14.25-.11-20.46,2.74-5.64,6.05-10.99,9.86-15.97,4.65-6.12,8.68-12.68,12.03-19.6,1.2-2.2,.47-4.96-1.65-6.29-2.2-1.26-5-.53-6.29,1.65-5.43,12.54-15.57,22.34-21.45,34.62-3.53,7.37-3.42,14.79-2.21,22.73,.59,3.88,1.4,7.71,2.09,11.58,.65,4.2,1.05,8.42,1.2,12.67,.59,9.16,1.09,18.33,1.51,27.51,.27,5.89,9.47,5.93,9.2,0h0Z"/>
  <path class="cls-3" d="M706.79,362.57c-3.22-6.71-5.82-13.7-7.75-20.89-1.32-6.14-1.06-12.51,.77-18.51,1.88-6.78,5.96-12.26,9.99-17.91,4.62-6.18,8.55-12.85,11.73-19.88,1.19-2.2,.47-4.96-1.65-6.29-2.2-1.26-5-.53-6.29,1.65-3.45,7.54-7.73,14.68-12.74,21.28-4.46,6.22-8.43,12.5-10.26,20.04-1.9,7.22-2.04,14.79-.41,22.07,2.17,7.94,5.07,15.67,8.67,23.07,1.29,2.18,4.1,2.91,6.29,1.65,2.14-1.32,2.87-4.09,1.65-6.29h0Z"/>
  <path class="cls-3" d="M671.18,269.49c2.28-6.19,3.97-12.58,5.05-19.09,.34-2.98,.82-5.94,1.46-8.87,.09-.36,.19-.71,.31-1.06,.21-.55,.24-.66,.1-.34,.13-.29,.28-.56,.45-.83-.25,.31-.19,.26,.18-.15,.41-.37,.47-.43,.19-.17,.26-.17,.54-.33,.82-.47-.93,.41,1.17-.42,.46-.1-.32,.04-.24,.06,.24,.03-.57-.09-.56-.06,.03,.09-.4-.15-.36-.1,.11,.16-.35-.24-.33-.18,.06,.19-.12-.45,.09,.34,.16,.56,.11,.38,.4,1.48,.41,1.55,.18,2.63,.15,5.28-.11,7.9-.18,5.62-.49,11.24-.91,16.86,.02,2.53,2.07,4.58,4.6,4.6,2.52-.05,4.55-2.08,4.6-4.6,.38-5.12,.68-10.25,.86-15.38,.19-5.32,1.01-11.28-1.72-16.12-2.83-4.77-8.99-6.35-13.76-3.52-.47,.28-.92,.6-1.34,.95-4.9,3.74-5.06,10.06-5.94,15.65-1.08,6.72-2.8,13.33-5.15,19.72-.65,2.45,.78,4.96,3.21,5.66,2.44,.62,4.94-.8,5.66-3.21h-.02Z"/>
  <path class="cls-1" d="M94.98,144.62c-2.1-.9-4.38-1.28-6.65-1.11-1.44,.09-2.85,.37-4.22,.84-3.58-11.06-5.46-22.59-5.58-34.21-.26-22.4,6.73-44.29,19.93-62.4,2.46,6.2,12.59,11.52,17.63,15.05,6.86,4.79,5.96,11.55,2.48,18.03-5.54,10.32-9.99,21.19-13.29,32.43-3.24,11.01-4.64,22.36-6.98,33.49-.99-.88-2.11-1.59-3.32-2.12Z"/>
  <path class="cls-1" d="M274.41,138.26c-1.05,.68-1.99,1.51-2.78,2.47-3.29-11.11-5.56-22.57-9.72-33.52-4.16-10.95-9.44-21.44-15.76-31.31-3.97-6.2-5.39-12.86,1.08-18.17,4.92-4.04,15.1-10.4,16.6-16.99,12.52,14.39,22.64,34.33,24.82,61.31,.86,11.55-.1,23.17-2.83,34.43-1.27-.29-2.58-.43-3.88-.41-2.67,0-5.28,.76-7.53,2.19Z"/>
  <path class="cls-3" d="M290.53,136.23c6.11-28.31,2.53-58.33-12.54-83.36-11.7-19.37-29.07-34.68-49.77-43.85-27.03-11.45-57.45-12.02-84.89-1.59-49.79,19.54-78.18,72.19-67.14,124.52,.8,4.07,1.82,8.09,3.01,12.07,1.68,5.66,10.56,3.26,8.87-2.45-7.66-25.78-6.47-53.92,6.01-78.05,9.7-18.69,24.94-33.93,43.64-43.61,24.33-11.98,52.37-14.05,78.2-5.79,19.89,6.58,37.19,19.28,49.42,36.28,14.82,20.85,21.33,46.48,18.27,71.88-.44,3.86-1.15,7.69-1.96,11.5-1.25,5.77,7.62,8.24,8.87,2.45h0Z"/>
  <path class="cls-3" d="M94.66,50.44c2.7,5.57,8.44,9.34,13.46,12.62,4.02,2.63,9.48,4.98,8.35,10.56-.9,3.09-2.2,6.04-3.88,8.78-1.89,3.75-3.63,7.58-5.25,11.45-3.2,7.49-5.81,15.22-7.82,23.11-2.34,9.42-3.68,19.06-5.65,28.55-1.2,5.78,7.66,8.24,8.87,2.45,1.81-8.74,3.09-17.6,5.1-26.3,1.95-8.25,4.58-16.33,7.86-24.14,1.58-3.82,3.35-7.57,5.23-11.25,1.9-3.19,3.38-6.61,4.41-10.18,1.65-7.51-1.53-13.64-7.76-17.82-5.1-3.45-12.16-6.65-14.97-12.46-1.3-2.17-4.1-2.91-6.29-1.65-2.15,1.32-2.88,4.09-1.65,6.29h0Z"/>
  <path class="cls-3" d="M259.08,40.56c-1.24,2.3-2.94,4.32-5,5.93-2.3,2.06-4.79,3.88-7.23,5.75-2.89,1.89-5.3,4.42-7.05,7.39-1.61,3.29-2.02,7.03-1.17,10.59,.94,3.4,2.45,6.61,4.48,9.5,2.17,3.47,4.22,7.02,6.13,10.64,3.91,7.3,7.22,14.92,9.88,22.77,3.08,9.26,5.16,18.8,7.86,28.17,1.64,5.68,10.52,3.26,8.87-2.45-2.29-7.92-4.13-15.97-6.5-23.86-2.45-8.02-5.53-15.85-9.2-23.39-1.71-3.56-3.55-7.06-5.5-10.49-1.92-3.36-4.26-6.55-5.98-10.01-1.31-2.1-1.62-4.68-.85-7.03,1.29-2.06,3.05-3.77,5.15-5,5.87-4.44,12.2-8.98,14.99-16.06,.66-2.45-.78-4.97-3.21-5.66-2.44-.62-4.93,.8-5.66,3.21h0Z"/>
  <path class="cls-3" d="M101.56,143.47c-6.01-5.06-14.48-6-21.46-2.38-4.84,2.78-8.17,7.59-9.07,13.1-2.43,13.2,.7,26.82,8.64,37.63,5.56,7.6,13.4,13.17,23.2,11.47,2.44-.69,3.87-3.21,3.21-5.66-.72-2.41-3.22-3.83-5.66-3.21-6.71,1.17-12.14-5.65-15.1-10.73-2.99-4.93-4.93-10.42-5.7-16.13-.62-5.33-.64-11.72,2.36-16.31,.18-.26,.14-.21-.13,.13,.18-.22,.37-.44,.57-.65,.16-.15,1.18-1.07,.9-.86,.98-.7,2.08-1.2,3.26-1.47,2.91-.83,6.04-.25,8.45,1.57,1.82,1.73,4.68,1.73,6.5,0,1.78-1.8,1.78-4.7,0-6.5h0Z"/>
  <path class="cls-3" d="M275.49,143.3c3.9-3.67,10.03-3.48,13.69,.42,0,0,0,.01,.01,.02-.66-.78,.22,.34,.34,.52,.42,.66,.79,1.35,1.09,2.07,.48,1.23,.84,2.5,1.1,3.79,.65,3.17,.88,6.4,.67,9.63-.36,5.63-1.85,11.13-4.39,16.17-2.94,5.95-7.73,12.49-15.12,11.78-2.53,.02-4.58,2.07-4.6,4.6,.05,2.52,2.08,4.55,4.6,4.6,15.31,1.47,23.95-15.31,27.33-27.75,1.75-6.81,1.93-13.92,.51-20.8-.82-5.68-3.91-10.78-8.58-14.13-7.43-4.45-16.91-3.39-23.18,2.59-4.25,4.14,2.26,10.64,6.5,6.5h0Z"/>
  <path class="cls-3" d="M268.74,184.47c-.65,3.75-1.56,7.46-2.72,11.09-.46,1.48-.94,2.95-1.48,4.41-.11,.31-.24,.62-.35,.93-.34,.89,.53-1.37-.17,.43-.19,.47-.35,.95-.53,1.42-.11,.29-.22,.57-.33,.87-.07,.18-.15,.36-.22,.54-.23,.57,.36-.82,.1-.24-.41,.93-.82,1.85-1.26,2.76-.98,2.05-2.04,4.06-3.15,6.05-5.74,10.72-13.25,20.4-22.21,28.63-4.82,4.49-10.6,7.82-16.9,9.73-5.7,1.55-3.28,10.43,2.45,8.87,13.24-3.6,23.94-13.67,32.25-24.18,7.17-8.81,13.07-18.59,17.54-29.04,.18-.43,.35-.87,.52-1.3,.07-.19,.43-1.29,.2-.64-.32,.93,.26-.63,.42-1.03,.15-.36,.29-.73,.43-1.09,.34-.91,.66-1.82,.96-2.74,1.45-4.24,2.56-8.58,3.33-13,.6-2.44-.81-4.92-3.21-5.66-2.45-.65-4.96,.78-5.66,3.21h0Z"/>
  <path class="cls-3" d="M96.17,193.24c3.37,12.76,9.02,24.8,16.68,35.54,8.4,11.66,19.24,22.53,32.22,29.01,6.84,3.39,14.23,5.53,21.83,6.31,2.53-.02,4.58-2.07,4.6-4.6-.06-2.52-2.08-4.54-4.6-4.6-25.36-2.77-45.15-24.92-55.54-46.74-2.63-5.58-4.75-11.39-6.32-17.36-1.53-5.71-10.4-3.29-8.87,2.45h0Z"/>
  <path class="cls-3" d="M204.28,204.45c-.61,.38-1.23,.75-1.87,1.09-.21,.11-.92,.62-1.13,.57,.62-.27,.77-.34,.44-.2-.14,.06-.27,.12-.41,.17-.24,.1-.49,.19-.74,.29-1.22,.45-2.47,.82-3.74,1.09-.43,.09-.85,.18-1.28,.26,.67-.13-.15,.02-.41,.06-.95,.13-1.91,.22-2.87,.28-1.72,.12-3.45,.12-5.18,0-.4-.03-.93-.11-.24-.01-.38-.05-.77-.1-1.15-.17-.58-.1-1.16-.22-1.73-.36s-1.09-.31-1.63-.48c-.8-.26-.03,.13,.22,.1-.24-.07-.47-.17-.68-.29-.65-.3-1.27-.65-1.86-1.05-2.23-1.21-5.02-.4-6.25,1.82-1.15,2.23-.35,4.98,1.82,6.25,4.79,3.25,11.34,3.76,16.93,3.4,5.87-.27,11.58-1.98,16.62-4.99,2.16-1.34,2.82-4.18,1.48-6.33-1.34-2.16-4.18-2.82-6.33-1.48h0Z"/>
  <path class="cls-3" d="M186.79,172.87c.43,1.43,.83,2.86,1.22,4.3,.44,1.51,.79,3.04,1.05,4.59l-.16-1.22c.04,.31,.04,.62,.02,.93l.16-1.22c-.03,.19-.07,.37-.14,.55l.46-1.1c-.06,.12-.13,.24-.21,.35l.72-.93c-.06,.07-.12,.13-.19,.19l.93-.72c-.27,.18-.55,.34-.85,.47l1.1-.46c-.36,.15-.73,.26-1.11,.32l1.22-.16c-.39,.04-.78,.04-1.17,0l1.22,.16c-.74-.1-1.47-.23-2.21-.3-1.22,0-2.39,.48-3.26,1.34-1.8,1.8-1.8,4.71,0,6.5,.9,.81,2.05,1.29,3.26,1.34,.07,0,.14,0,.21,.02l-1.22-.16c.91,.18,1.83,.29,2.75,.32,1.48-.04,2.92-.44,4.22-1.15,1.57-.82,2.72-2.28,3.13-4,.27-1.45,.22-2.94-.15-4.36-.57-2.71-1.31-5.4-2.11-8.05-.34-1.15-1.09-2.12-2.11-2.75-2.19-1.28-5.01-.55-6.29,1.65-.63,1.07-.79,2.35-.46,3.55h-.03Z"/>
  <path class="cls-3" d="M142.43,150.24c-1.26,4.74,.09,15.47,8.99,16.04,11.72-.52,11.84-13.56,7.66-19.53-3.43-4.89-13-6.61-16.66,3.49Z"/>
  <path class="cls-3" d="M236.27,146.64c1.62,4.62,1.1,15.43-7.74,16.68-11.72,.38-12.84-12.61-9.13-18.88,3.03-5.13,12.45-7.58,16.87,2.2Z"/>
  <path class="cls-3" d="M180.29,169.88c7.53-13.54,6.18-33.79-9.77-40.58-7.64-3.03-15.85-4.32-24.04-3.79-7.57,.36-15.75,1.58-22.26,5.7-6.29,3.77-10.85,9.85-12.71,16.95-1.24,6.21-.61,12.66,1.81,18.51,5.11,12.26,16.87,20.45,30.14,21.01,7.36,.59,14.76-.56,21.59-3.37,6.48-3.07,11.82-8.12,15.25-14.42,3-5.12-4.95-9.75-7.94-4.64-2.28,4.24-5.71,7.75-9.9,10.14-3.98,1.92-8.33,2.97-12.75,3.07-9.83,.53-19.86-2.01-25.53-10.68-5.13-7.86-6.05-18.56,1-25.65,4.05-4.08,9.11-5.73,14.65-6.71,6.63-1.18,13.42-1.1,20.01,.24,5.83,1.23,12.04,3.39,14.54,9.58,2.61,6.46,1.26,14.1-2.03,20.02-2.88,5.18,5.06,9.82,7.94,4.64Z"/>
  <path class="cls-3" d="M207.63,164.19c-6.03-9.1-7.15-23.69,4.52-28.82,5.96-2.52,12.35-3.84,18.81-3.91,5.94-.13,12.52,.16,17.84,3.07,4.52,2.26,7.92,6.26,9.42,11.08,1,4.34,.73,8.87-.77,13.07-3.2,8.89-11.17,15.2-20.55,16.29-5.64,.9-11.41,.56-16.91-1-5.09-1.8-9.44-5.23-12.37-9.77-1.32-2.14-4.09-2.86-6.29-1.65-2.17,1.3-2.91,4.1-1.65,6.29,3.56,5.53,8.61,9.94,14.56,12.72,6.05,2.41,12.57,3.4,19.07,2.87,13.19-.69,25.88-6.99,31.5-19.49,2.61-5.71,3.61-12.04,2.87-18.28-1-7.28-5-13.81-11.04-18.01-6.17-4.57-13.58-5.95-21.1-6.32-8.24-.48-16.49,.72-24.25,3.53-7.76,2.92-14.67,8.62-16.59,17.08-1.93,8.95-.13,18.3,4.98,25.89,3.26,4.92,11.23,.32,7.94-4.64Z"/>
  <path class="cls-3" d="M180.09,152.78l18.33-.7c2.54,0,4.6-2.06,4.6-4.6s-2.06-4.6-4.6-4.6l-18.33,.7c-2.54,0-4.6,2.06-4.6,4.6s2.06,4.6,4.6,4.6h0Z"/>
  <path class="cls-3" d="M128.11,109.99c-.81,.86-1.7,1.65-2.65,2.35l.93-.72c-2.1,1.72-4.41,3.18-6.88,4.33l1.1-.46c-.24,.1-.48,.19-.72,.26-1.15,.33-2.13,1.09-2.75,2.11-1.28,2.19-.55,5.01,1.65,6.29,1.07,.63,2.35,.79,3.55,.46,2.27-.77,4.4-1.9,6.32-3.33,1.29-.88,2.54-1.82,3.76-2.8,.78-.6,1.52-1.27,2.19-1.99,.84-.88,1.32-2.04,1.34-3.26,0-1.22-.49-2.39-1.34-3.26-1.8-1.8-4.71-1.8-6.5,0v.02Z"/>
  <path class="cls-3" d="M215.85,206.6c.9,1.58,1.69,3.22,2.36,4.9l-.46-1.1c.51,1.22,.99,2.45,1.43,3.7,.35,1.14,1.09,2.12,2.11,2.75,2.19,1.28,5.01,.54,6.29-1.65,0,0,0,0,0,0,.63-1.07,.79-2.35,.46-3.54-.68-1.95-1.47-3.87-2.3-5.75-.57-1.35-1.22-2.67-1.95-3.94-.62-1.02-1.6-1.77-2.75-2.11-1.2-.32-2.47-.15-3.54,.46-1.03,.61-1.79,1.59-2.11,2.75-.31,1.2-.14,2.47,.46,3.55v-.02Z"/>
  <path class="cls-3" d="M157.06,203.86c-1.52,3.19-2.72,6.52-3.58,9.95-.31,1.2-.14,2.47,.46,3.54,1.28,2.19,4.1,2.93,6.29,1.65,0,0,0,0,0,0,1.02-.62,1.77-1.6,2.11-2.75,.67-2.6,1.53-5.15,2.56-7.63l-.46,1.1c.18-.42,.36-.83,.56-1.23,.6-1.08,.76-2.35,.46-3.55-.67-2.45-3.21-3.89-5.66-3.21h0c-1.16,.32-2.14,1.07-2.75,2.11h0Z"/>
  <path class="cls-3" d="M226.04,251.57v9.35c.01,1.22,.49,2.38,1.34,3.26,1.79,1.8,4.7,1.8,6.5,.01,.87-.87,1.36-2.04,1.35-3.27v-9.35c-.01-1.22-.49-2.38-1.34-3.26-1.79-1.8-4.7-1.8-6.5-.01-.87,.87-1.36,2.04-1.35,3.27Z"/>
  <path class="cls-1" d="M98.73,288.9c-22.39,7.61-36.64,14.04-50.01,23.27-12.89,8.9-20.68,20.57-27.47,37.31-11.63,41.84-13.83,67.87-15.96,109.25-1.43,20.82-.68,41.73,2.22,62.39,2.25,14.37,8.85,27.7,18.92,38.19,12.74,13.13,40.8,15.66,52.51,14.74,30.19-2.36,68.32-9.05,103.79-18.06,18.64,2.56,39.26,4.05,58.88,5.08,26.69,1.4,49.56,2.69,77.93-.41,18.1-1.98,38.74-13.84,45.78-26.42,8.62-15.43,11.07-28.11,12.03-48.12,1.32-25.66,.57-51.39-2.24-76.93-2.95-25.93-6.29-52.12-18.63-75.43-4.02-7.69-8.98-14.85-14.76-21.32-5.91-6.34-12.82-11.66-20.45-15.77-20.67-12.03-44.94-17.23-68.06-22.2-8.45,16.48-17.36,33.56-30.51,47.81-6.42-5.83-27.09-27.92-27.9-28.86l-6.77,.24c-.74,1-19.82,24.48-25.82,30.74-13.96-13.15-23.98-29.37-33.47-45.06-11.49,3.51-21.35,6.63-30,9.57Z"/>
  <path class="cls-2" d="M228.49,508.83c-4.3-16.68-9.35-35.43-12.74-46.61,13.38-6.15,19.99-7.94,32.88-11.66,10.58-3.05,21.88-6.25,36.45-6.25,9.69,0,20.07,4.2,27.26,6.73l2.18,.77c-1.85,19.66-3.91,38.82-5.78,52.51l-2.13,1.92s-8.08,7.27-14.07,8.43c-8.84,1.72-52.33,4.78-60.36,.7l-2.32-1.18c-.45-1.75-.91-3.53-1.37-5.34Z"/>
  <path class="cls-2" d="M57.35,434.03c-.26-.47-.5-.94-.72-1.43-1.15-2.6-.7-5.63,1.15-7.79,2.16-2.26,5.31-3.29,8.39-2.77,0,0,1.07,.11,2.35,.25-.95-1.07-1.74-2.27-2.37-3.55-1.62-3.29-1.08-7.23,1.36-9.96,2.38-2.14,5.59-3.11,8.75-2.66,3.68,.52,7.12,2.14,9.87,4.63,14.34,12.7,40.75,38.45,54.09,51.91,0,0,2.57,2.47,5.31,5.02-28.82,5.01-58.21,10.14-71.94,12.67l-1.37-1.71c-4.26-5.31-7.83-10.18-12.42-16.07-1.57-1.76-2.82-3.77-3.7-5.95-.77-2.55-.31-5.31,1.23-7.47,2.94-3.27,6.79-2.68,12-1.75-2.12-2.18-4.24-4.36-6.38-6.5-2.17-2.03-4.06-4.35-5.62-6.88Z"/>
  <path class="cls-3" d="M303.36,502.97c-3.13,2.8-7.23,6.16-11.78,7.19-.66,.15-1.34,.24-2.01,.35-.19,.03-.38,.05-.56,.08-.61,.09,.96-.12,.31-.04-.51,.06-1.02,.13-1.52,.19-2.22,.26-4.45,.48-6.68,.67-11.65,1.12-23.36,1.55-35.07,1.28-2.65-.08-5.29-.23-7.92-.54-.89-.1-.03,0,.12,.02-.34-.05-.68-.1-1.02-.16-.46-.08-.92-.17-1.38-.28-.4-.09-.79-.22-1.19-.32-.16-.04-.31-.13-.46-.16-.77-.14,1,.46,.31,.12-2.2-1.22-4.97-.49-6.29,1.65-1.26,2.2-.52,5,1.65,6.29,4.16,1.66,8.61,2.49,13.09,2.44,6.08,.34,12.18,.25,18.26,.04,10.77-.07,21.52-.95,32.15-2.64,6.17-1.17,11.92-5.59,16.5-9.69,4.42-3.96-2.11-10.44-6.5-6.51h0Z"/>
  <path class="cls-3" d="M221.26,464.75c6.75-2.93,13.67-5.43,20.74-7.47,7.39-2.18,14.79-4.44,22.32-6.08,7.98-1.96,16.22-2.67,24.43-2.1,7.72,.78,15.12,3.81,22.38,6.38,2.45,.65,4.96-.78,5.66-3.21,.62-2.44-.79-4.94-3.21-5.66-8-2.83-15.92-5.77-24.41-6.66-8.91-.62-17.85,.13-26.53,2.23-7.79,1.64-15.44,3.98-23.07,6.24-7.82,2.31-15.48,5.12-22.93,8.41-2.18,1.29-2.91,4.1-1.65,6.29,1.32,2.14,4.09,2.87,6.29,1.65h0Z"/>
  <path class="cls-3" d="M143.48,459.41c-14.27-14.38-28.81-28.5-43.63-42.35-7.09-6.62-15.02-16.11-25.65-15.58-6.32,.32-12.08,4.08-13.29,10.62-1.24,6.71,2.65,12.02,7.23,16.44,9.68,9.34,19.22,18.83,28.89,28.19,4.25,4.12,10.76-2.37,6.5-6.5-7.63-7.4-15.2-14.86-22.78-22.31-1.92-1.89-3.87-3.73-5.82-5.6-1.9-1.55-3.49-3.44-4.68-5.57-1.9-4.29,2.27-6.63,6.01-6.02,4.07,.66,7.04,3.63,9.96,6.27,3.12,2.83,6.22,5.69,9.29,8.58,7.07,6.63,14.06,13.33,21,20.1,6.87,6.69,13.7,13.43,20.47,20.23,4.18,4.22,10.68-2.3,6.51-6.5h0Z"/>
  <path class="cls-3" d="M66.16,417.45c-5.54-.75-10.97,2.04-13.57,6.99-2.83,6.08,.13,11.79,4.1,16.48,3.75,4.44,8.14,8.45,12.2,12.61,4.14,4.23,8.32,8.42,12.73,12.38s10.92-2.54,6.5-6.5c-7.09-6.37-13.59-13.34-20.29-20.12-1.58-1.59-3.2-3.15-4.65-4.87-1.23-1.23-2.12-2.75-2.59-4.42-.43-3.05,3.1-3.67,5.56-3.35,2.54-.01,4.59-2.06,4.6-4.6-.06-2.51-2.08-4.54-4.6-4.6h0Z"/>
  <path class="cls-3" d="M66.33,442.31c-4.46-.57-9.06,.11-12.24,3.59-2.96,3.54-3.77,8.4-2.13,12.71,1.76,4.46,5.3,8.12,8.19,11.9,2.92,3.82,5.83,7.64,8.83,11.39,1.8,1.78,4.7,1.78,6.5,0,1.74-1.82,1.74-4.68,0-6.5-2.28-2.85-4.17-5.32-6.37-8.2-2.37-3.1-5.05-6.34-7.14-9.32-.47-.64-.89-1.31-1.26-2.02,0,.01-.22-.65-.28-.81-.29-.79-.03,.36-.06-.17-.02-.36-.02-.71-.02-1.07-.02-.85-.09,.19,.01-.3,.07-.35,.17-.69,.27-1.04-.16,.59-.08,.13,.12-.21,.34-.59-.8,.84,.16-.19,.54-.57-.08,.01,.26-.24,.28-.21,.81-.45,.18-.19,.32-.13,.66-.19,.98-.29,.47-.15-.63-.02,.23-.04,.37,0,.74-.03,1.11-.02,.89,.03,1.77,.1,2.64,.23,2.53-.01,4.59-2.06,4.6-4.6-.06-2.51-2.08-4.54-4.6-4.6h0Z"/>
  <path class="cls-3" d="M314.93,386.5c-1.84,36.65-5.23,73.37-9.74,109.8-.84,6.78-1.63,13.17-3.01,20.35-.61,2.44,.81,4.93,3.21,5.66,2.45,.65,4.96-.78,5.66-3.21,2.86-14.89,4.29-30.12,5.88-45.19,2.08-19.75,3.87-39.53,5.37-59.33,.71-9.35,1.36-18.7,1.83-28.07,.3-5.92-8.9-5.9-9.2,0h0Z"/>
  <path class="cls-3" d="M129.29,274.34c-25.79,7.88-52.85,15.35-76.1,29.45-11.57,6.67-21.28,16.13-28.24,27.53-4.22,6.99-7.47,14.52-9.63,22.39-2.28,8.54-4.35,17.15-6.1,25.82-3.11,15.67-5.29,31.51-6.53,47.43-1.3,15.86-2.3,31.81-2.6,47.71-.32,16.84,.21,34.26,3.54,50.81,1.54,7.43,4.18,14.58,7.86,21.22,3.66,7.07,8.64,13.36,14.69,18.53,10.53,8.4,24.45,11.6,37.57,13,12.2,1.3,24.35-.26,36.46-1.79,32.49-4.15,64.64-10.6,96.21-19.32,7.66-2.1,15.28-4.36,22.85-6.77,3.48-1.12,6.95-2.27,10.4-3.46,3.98-1.38,8.54-2.44,10.07-6.9,.98-2.84,.05-5.68-.61-8.47-.59-2.5-1.2-4.99-1.82-7.48-1.5-6.09-3.04-12.16-4.61-18.23-3.24-12.53-6.56-25.04-10.13-37.48-.7-2.44-1.41-4.87-2.14-7.3-.92-3.03-1.71-6.17-4.55-8-4.01-2.59-9.86-.51-14.26,.26-21.73,3.81-43.48,7.6-65.22,11.35-20.44,3.56-40.89,7.07-61.31,10.8-2.54,.46-5.09,.93-7.62,1.43-2.43,.7-3.86,3.21-3.21,5.66,.72,2.42,3.21,3.83,5.66,3.21,16.24-3.18,32.58-5.89,48.86-8.74,22.53-3.94,45.06-7.85,67.6-11.75,4.63-.8,9.25-1.61,13.88-2.42,3.62-.38,7.2-1.01,10.73-1.89,.64-.21,.33,.06,.29-.05,.21,.57-.79-.49-.63-.49-.24,0-.03-.41,0,.13,.21,1.08,.54,2.14,.97,3.16,.71,2.36,1.41,4.72,2.08,7.09,1.63,5.68,3.21,11.37,4.74,17.08,3.3,12.22,6.48,24.47,9.54,36.76,.62,2.52,1.24,5.04,1.85,7.57,.25,1.02,.49,2.04,.73,3.07l.33,1.4c.11,.49,.38,1.38,.17,.34-.11-.53,.69-.43-.49-.14-.79,.19-1.58,.56-2.34,.83-1.82,.64-3.63,1.26-5.46,1.87-3.4,1.14-6.82,2.24-10.25,3.3-30.19,9.28-60.99,16.46-92.17,21.46-13.89,2.27-27.92,4.27-41.97,5.19-10.98,.65-21.99-.78-32.45-4.2-5.43-1.57-10.47-4.24-14.82-7.85-5.46-5.16-9.91-11.3-13.11-18.1-6.87-13.89-7.82-30.03-8.5-45.26-.46-15.04-.17-30.1,.89-45.12,.87-15.39,1.93-30.81,4.09-46.09,2.34-16.07,5.66-31.97,9.94-47.63,3.63-13.58,11.13-25.81,21.57-35.22,8.1-6.61,17.09-12.05,26.7-16.16,11.45-5.07,23.19-9.47,35.15-13.17,7.94-2.59,15.9-5.06,23.89-7.49,5.65-1.72,3.24-10.61-2.45-8.87h0Z"/>
  <path class="cls-3" d="M252.73,279.05c16.41,3.53,32.92,7.11,48.62,13.17,14.72,5.69,29.04,13.8,39.3,26,22.12,26.29,26.81,61.72,30.26,94.69,1.89,18.39,2.69,36.88,2.39,55.36-.22,15.61-.24,31.87-4.76,46.96-1.84,6.4-4.57,12.51-8.1,18.16-3.75,5.29-8.62,9.69-14.26,12.9-6.38,3.97-13.34,6.89-20.64,8.65-8.12,1.61-16.37,2.48-24.65,2.6-16.84,.65-33.71,.44-50.53-.62-17.87-.92-35.74-1.94-53.54-3.83-4.29-.46-8.58-.96-12.86-1.54-2.44-.59-4.91,.82-5.66,3.21-.66,2.45,.77,4.97,3.21,5.66,18.73,2.56,37.57,4,56.44,5.05,17.5,.97,35.02,1.98,52.55,1.64,17.36-.33,35.14-.92,51.22-8.07,7.04-3.08,13.54-7.26,19.26-12.39,5.14-4.88,9.21-10.77,11.97-17.3,6.54-14.31,8.38-29.52,9.08-45.1,.89-19.25,.65-38.54-.72-57.76-1.18-18.36-3.53-36.63-7.04-54.7-3.51-17.25-9.29-34.19-18.92-49.02-4.58-7.33-10.19-13.95-16.67-19.67-6.46-5.34-13.51-9.92-21.03-13.63-15.65-7.94-32.67-12.61-49.71-16.48-4.24-.96-8.49-1.88-12.75-2.8-5.77-1.24-8.24,7.62-2.45,8.87h0Z"/>
  <path class="cls-3" d="M225.94,325.52c9.65-10.95,17.91-23.06,24.59-36.04,1.64-3.04,3.23-6.09,4.82-9.16,.93-1.81,2.33-3.75,2.05-5.85-.52-1.86-1.46-3.57-2.73-5.02-4.11-6.06-9.11-11.47-14.82-16.06-1.82-1.74-4.69-1.74-6.5,0-6.41,7.09-13.51,13.53-21.2,19.21-3.84,2.82-7.83,5.43-11.95,7.83-3.58,2.07-9.2,3.58-10.43,8.01-1.45,5.2,1.95,8.43,5.12,11.8,3.98,4.25,7.98,8.47,12.01,12.66,4.1,4.27,8.18,8.62,12.56,12.61s10.89-2.5,6.5-6.5c-7.66-6.99-14.68-14.77-21.79-22.31-1.43-1.52-2.86-3.04-4.28-4.56-.41-.44-.82-.89-1.23-1.32s-.96-.78-.13-.08c.2,.17,.04,.28,.1,.45-.33-1.03,.11-.51,0-.3-1.05,2.21-1.3,1.21-.23,.94,.5-.2,.98-.44,1.43-.72,1.94-1,3.84-2.04,5.71-3.15,3.87-2.28,7.61-4.76,11.23-7.41,8.36-6.09,16.09-13.01,23.07-20.64h-6.5c6.15,4.9,11.42,10.82,15.58,17.5v-4.64c-8.36,16.29-17.02,32.66-29.47,46.25-3.98,4.36,2.5,10.88,6.51,6.5Z"/>
  <path class="cls-3" d="M165.44,321.13c-13.39-12.72-23.19-28.34-32.69-44.03v4.64c3.65-6.97,8.47-13.25,14.25-18.59h-6.5c6.66,6.35,13.86,12.1,21.53,17.19,3.77,2.49,7.65,4.83,11.64,6.95,1.7,.9,3.43,1.77,5.17,2.59,.98,.46,1.96,.91,2.96,1.34,.49,.21,.98,.42,1.48,.63l1.1,.46c.89,.47,.98,.42,.26-.13,.25,.44-.62-.74-.59-.71s-.04-.72-.02-.07c.02,.42,.47-.71,.6-.86-.32,.36-.6,.75-.9,1.12-1.11,1.37-2.22,2.74-3.33,4.1-3.55,4.34-7.12,8.67-10.72,12.98-3.5,4.18-6.98,8.43-10.75,12.38-4.08,4.28,2.41,10.8,6.5,6.5,7.62-8,14.49-16.8,21.46-25.35,2.45-3,6.07-6.31,6.3-10.38,.14-2.03-.48-4.04-1.74-5.64-1.56-1.88-3.97-2.49-6.13-3.47-4.29-1.94-8.48-4.13-12.53-6.54-9.32-5.54-17.98-12.11-25.81-19.61-1.82-1.74-4.68-1.74-6.5,0-5.4,4.95-10.03,10.68-13.73,17-1,1.41-1.81,2.93-2.42,4.55-.66,2.41,.99,4.42,2.17,6.35,1.79,2.95,3.6,5.88,5.44,8.8,7.55,12.49,16.61,24.01,26.98,34.28,4.3,4.08,10.82-2.41,6.51-6.5Z"/>
  <path class="cls-3" d="M790.8,374.89c-.25,19.15-1.61,38.27-4.06,57.26-2.17,18.3-6.26,36.32-12.21,53.77-5.25,14.61-13.75,30.13-26.83,39.14-12.26,8.09-27.03,11.45-41.58,9.46-6.69-.87-13.14-3.06-18.97-6.45-6.33-3.97-11.77-9.2-15.99-15.36-4.02-5.82-7.24-12.15-9.58-18.83-3.17-8.48-5.88-17.12-8.29-25.85-4.74-17.56-8.51-35.37-11.3-53.35-1.32-8.25-2.5-16.52-3.53-24.81-.24-1.89-.47-3.77-.69-5.66-.13-1.12-.48-2.01,.5-2.53,.98-.32,2-.52,3.03-.59l3.15-.6,6.86-1.3c9.38-1.79,18.77-3.58,28.15-5.37,4.57-.86,9.15-1.72,13.72-2.56,2.14-.39,4.29-.78,6.43-1.17,2.1-.61,4.25-1,6.43-1.15,1.22,.08,1.11,1.03,1.43,2.16,.59,2.11,1.19,4.22,1.79,6.34,1,3.51,2.01,7.03,3.02,10.54,1.98,6.85,3.95,13.7,5.84,20.58,1.21,4.43,2.4,8.86,3.57,13.3,1.51,5.72,10.38,3.29,8.87-2.45-4.24-16.1-8.95-32.04-13.46-48.05-1.32-4.7-2.58-9.63-7.89-11.19-2.43-.52-4.96-.45-7.36,.21-2.36,.42-4.72,.84-7.07,1.27-10.02,1.82-20.03,3.72-30.04,5.63l-14.64,2.8c-4.62,.88-9.39,1.48-13.95,2.64-4.75,1.16-7.99,5.56-7.69,10.44,.3,4.3,1.04,8.62,1.61,12.89,2.51,18.91,5.6,37.75,9.84,56.34,2.2,9.65,4.7,19.24,7.63,28.69,2.52,8.68,5.64,17.17,9.32,25.43,3.46,7.28,8.08,13.95,13.67,19.76,5.86,6.16,13.06,10.89,21.05,13.83,15.16,5.48,31.77,5.42,46.89-.16,16.74-6.08,29.04-19.06,37.41-34.51,8.91-16.43,13.51-35.09,16.92-53.34,3.75-20.72,6.01-41.68,6.77-62.72,.2-4.83,.35-9.67,.43-14.5,.11-5.92-9.09-5.92-9.2,0h0Z"/>
</svg>