<svg xmlns="http://www.w3.org/2000/svg" width="121.3" height="121.53" viewBox="0 0 121.3 121.53">
  <g id="follow" transform="translate(-2.3 -2.47)">
    <path id="Tracé_147" data-name="Tracé 147" d="M67.3,20.7a9.127,9.127,0,1,0-8.4-9.8,9.159,9.159,0,0,0,8.4,9.8m-7.7,3.7A10.1,10.1,0,0,1,66,22.5a10.114,10.114,0,0,1,7.3,4.6l9.2,18.2L95,54a4.111,4.111,0,0,1,1.6,3.6,4.192,4.192,0,0,1-4.4,3.8,4.674,4.674,0,0,1-1.9-.6L76.6,51.4a5.3,5.3,0,0,1-1-1.2l-3.4-6.8L68,61.4,84.2,80.5a6.982,6.982,0,0,1,.8,2l4.4,23.1a5.652,5.652,0,0,1,0,1.3,6.259,6.259,0,0,1-6.7,5.7,6.385,6.385,0,0,1-5.6-4.9L73,86,59.9,71.6l-3.1,14a20.619,20.619,0,0,1-1.2,2.6L43,109.5a6.2,6.2,0,0,1-11.5-3.7,7.983,7.983,0,0,1,.8-2.6L44,83.5l9.7-43.3-6.4,5.2L43.9,60.8a4.137,4.137,0,0,1-8.2-1,4.331,4.331,0,0,1,.1-.5l4-18a3.9,3.9,0,0,1,1.3-2L59.6,24.4ZM2.3,89.3h9.4v7.5H2.3Zm18.6,0h9.4v7.5H20.9Z" fill="#fff"/>
    <path id="Tracé_148" data-name="Tracé 148" d="M58.1,89.3h9.4v7.5H58.1Zm37.6,0h9.4v7.5H95.7Zm18.5,0h9.4v7.5h-9.4ZM2.3,116.5h9.4V124H2.3Zm18.6,0h9.4V124H20.9Zm18.7,0H49V124H39.6Zm37.5,0h9.4V124H77.1Zm-19,0h9.4V124H58.1Zm37.6,0h9.4V124H95.7Zm18.5,0h9.4V124h-9.4Z" fill="#fff"/>
  </g>
</svg>
