<svg xmlns="http://www.w3.org/2000/svg" xml:space="preserve" viewBox="0 0 128 128"><path d="M67.3 20.7c5 .4 9.4-3.4 9.8-8.4.4-5-3.3-9.4-8.4-9.8-5-.4-9.4 3.3-9.8 8.4-.3 5 3.4 9.4 8.4 9.8M59.6 24.4c1.8-1.2 4-2.1 6.4-1.9 3.1.3 5.7 2.2 7.3 4.6l9.2 18.2L95 54c1.1.8 1.7 2.2 1.6 3.6-.2 2.3-2.2 3.9-4.4 3.8-.7 0-1.2-.3-1.9-.6l-13.7-9.4c-.4-.4-.8-.8-1-1.2l-3.4-6.8-4.2 18 16.2 19.1c.4.6.6 1.3.8 2l4.4 23.1c0 .5.1.8 0 1.3-.3 3.4-3.2 5.9-6.7 5.7-2.8-.2-4.9-2.3-5.6-4.9L73 86 59.9 71.6l-3.1 14c-.1.7-1 2-1.2 2.6L43 109.5c-1.3 2-3.4 3.2-5.8 3-3.4-.3-5.9-3.2-5.7-6.7.1-1 .5-2 .8-2.6L44 83.5l9.7-43.3-6.4 5.2-3.4 15.4c-.4 2-2.2 3.6-4.4 3.4-2.2-.2-4-2.1-3.8-4.4 0-.2.1-.4.1-.5l4-18c.2-.8.7-1.5 1.3-2l18.5-14.9zM2.3 89.3h9.4v7.5H2.3zM20.9 89.3h9.4v7.5h-9.4z"/><path d="M58.1 89.3h9.4v7.5h-9.4zM95.7 89.3h9.4v7.5h-9.4zM114.2 89.3h9.4v7.5h-9.4zM2.3 116.5h9.4v7.5H2.3zM20.9 116.5h9.4v7.5h-9.4zM39.6 116.5H49v7.5h-9.4zM77.1 116.5h9.4v7.5h-9.4zM58.1 116.5h9.4v7.5h-9.4zM95.7 116.5h9.4v7.5h-9.4zM114.2 116.5h9.4v7.5h-9.4z"/></svg>