<?xml version="1.0" encoding="UTF-8"?>
<svg id="Calque_1" data-name="Calque 1" xmlns="http://www.w3.org/2000/svg" viewBox="0 0 671.73 392.72">
  <defs>
    <style>
      .cls-1 {
        fill: #fff;
      }
    </style>
  </defs>
  <g>
    <path class="cls-1" d="M333.25,357.17c4.59,0,8.6,4.01,8.6,8.6v18.35c0,4.59-4.01,8.6-8.6,8.6h-18.35c-4.59,0-8.6-4.01-8.6-8.6v-18.35c0-4.59,4.01-8.6,8.6-8.6h18.35Z"/>
    <path class="cls-1" d="M341.85,313.02c0-12.04,7.45-22.94,17.78-27.52h.57c29.82-12.04,50.46-41.29,50.46-75.69,0-44.73-36.7-81.42-81.42-81.42-41.29,0-75.69,30.39-81.42,69.96v.57c-.57,5.16,3.44,9.17,8.6,9.17h18.35c4.59,0,8.03-2.87,8.6-6.31v-1.15c4.01-21.22,22.94-37.27,45.3-37.27,25.8,0,46.45,20.64,46.45,46.45,0,12.04-4.59,22.94-12.04,31.54l-.57,.57c-5.16,5.73-12.04,9.17-18.92,11.47-22.94,8.03-38.42,29.82-38.42,53.9v8.6c0,4.59,3.44,8.03,8.03,8.03h18.35c4.59,0,9.17-3.44,9.17-8.6l1.15-2.29Z"/>
  </g>
  <g>
    <path class="cls-1" d="M547.69,222.62c4.35,1.45,6.9,6.52,5.45,10.87l-5.79,17.41c-1.45,4.35-6.52,6.9-10.87,5.45l-17.41-5.79c-4.35-1.45-6.9-6.52-5.45-10.87l5.79-17.41c1.45-4.35,6.52-6.9,10.87-5.45l17.41,5.79Z"/>
    <path class="cls-1" d="M569.77,183.43c3.8-11.43,14.31-19.42,25.55-20.52l.54,.18c32.09-2.03,60.9-23.27,71.75-55.92,14.1-42.44-9.16-88.84-51.6-102.94-39.18-13.02-81.41,4.98-99.33,40.72l-.18,.54c-2.17,4.72,.37,9.79,5.27,11.42l17.41,5.79c4.35,1.45,8.52-.19,10.15-3.27l.36-1.09c10.5-18.87,33.52-28.14,54.74-21.09,24.49,8.14,37.57,34.23,29.43,58.72-3.8,11.43-11.58,20.32-21.37,26.13l-.72,.36c-6.71,3.81-14.32,4.91-21.57,4.92-24.3,.39-45.86,16.18-53.45,39.04l-2.71,8.16c-1.45,4.35,.73,8.7,5.09,10.15l17.41,5.79c4.35,1.45,9.79-.37,11.42-5.27l1.81-1.82Z"/>
  </g>
  <g>
    <path class="cls-1" d="M115.88,232.96c4.49-.93,9.23,2.2,10.16,6.69l3.7,17.97c.93,4.49-2.2,9.23-6.69,10.16l-17.97,3.7c-4.49,.93-9.23-2.2-10.16-6.69l-3.7-17.97c-.93-4.49,2.2-9.23,6.69-10.16l17.97-3.7Z"/>
    <path class="cls-1" d="M115.39,187.98c-2.43-11.79,2.67-23.97,11.85-30.54l.56-.12c26.77-17.81,41.09-50.62,34.14-84.32C152.93,29.19,109.58,.66,65.77,9.69,25.33,18.02-2.23,54.73,.14,94.64l.12,.56c.48,5.17,5.22,8.29,10.28,7.25l17.97-3.7c4.49-.93,7.28-4.43,7.15-7.91l-.23-1.12c-.35-21.59,14.94-41.13,36.84-45.65,25.27-5.21,49.66,10.84,54.86,36.12,2.43,11.79,.14,23.39-5.43,33.32l-.45,.68c-3.9,6.66-9.94,11.42-16.22,15.05-20.84,12.49-31.61,36.96-26.75,60.55l1.74,8.42c.93,4.49,4.99,7.17,9.48,6.24l17.97-3.7c4.49-.93,8.29-5.22,7.25-10.28l.66-2.48Z"/>
  </g>
</svg>