<svg xmlns="http://www.w3.org/2000/svg" width="21.516" height="21.514" viewBox="0 0 21.516 21.514">
  <g id="journal" transform="translate(-1.25 -1.236)">
    <path id="Tracé_74" data-name="Tracé 74" d="M6,6h8M6,10H18m-6,4h6m-6,4h6M2,21.4V2.6A.6.6,0,0,1,2.6,2H18.252a.6.6,0,0,1,.424.176l3.148,3.148A.6.6,0,0,1,22,5.75V21.4a.6.6,0,0,1-.6.6H2.6a.6.6,0,0,1-.6-.6Z" fill="none" stroke="#fff" stroke-linecap="round" stroke-linejoin="round" stroke-width="1.5"/>
    <path id="Tracé_75" data-name="Tracé 75" d="M18,5.4V2.354a.354.354,0,0,1,.6-.25L21.9,5.4a.353.353,0,0,1-.25.6H18.6A.6.6,0,0,1,18,5.4ZM6,18V14H8v4Z" fill="#fff" stroke="#fff" stroke-linecap="round" stroke-linejoin="round" stroke-width="1.5"/>
  </g>
</svg>
