<svg xmlns="http://www.w3.org/2000/svg" width="19.586" height="20" viewBox="0 0 19.586 20">
  <path id="notif" d="M9.3,4.727v.526c-2.69,1.1-4.57,4.726-4.5,7.866v1.744c-1.377,1.77-1.3,4.41,2.14,4.41H9.3A2.757,2.757,0,0,0,10.08,21.2a2.64,2.64,0,0,0,3.784,0,2.755,2.755,0,0,0,.784-1.928h2.367c3.43,0,3.479-2.645,2.1-4.415l.038-1.736c.07-3.144-1.813-6.77-4.508-7.872V4.727A2.751,2.751,0,0,0,13.864,2.8a2.64,2.64,0,0,0-3.784,0A2.754,2.754,0,0,0,9.3,4.727Zm3.567,0s0,.037,0,.055a7.12,7.12,0,0,0-1.78,0,.918.918,0,0,1,.26-.7.883.883,0,0,1,1.26,0,.915.915,0,0,1,.262.643ZM11.08,19.273a.922.922,0,0,0,.261.643.884.884,0,0,0,1.262,0,.919.919,0,0,0,.26-.643Zm5.935-1.819a.911.911,0,0,0,.678-1.5,1.54,1.54,0,0,1-.361-1.025l.04-1.848c.068-3.087-2.368-6.536-5.4-6.536s-5.464,3.448-5.4,6.535l.04,1.85a1.54,1.54,0,0,1-.36,1.025.91.91,0,0,0,.676,1.5h10.08ZM16.98,3.2a1,1,0,0,1,1.392-.252,10.416,10.416,0,0,1,3.275,4.963,1,1,0,1,1-1.9.63,8.583,8.583,0,0,0-2.517-3.95A1,1,0,0,1,16.98,3.2ZM5.43,2.95A1,1,0,1,1,6.57,4.594a8.58,8.58,0,0,0-2.518,3.95,1,1,0,0,1-1.9-.631A10.416,10.416,0,0,1,5.43,2.95Z" transform="translate(-2.112 -2)" fill="#fff" fill-rule="evenodd"/>
</svg>
